<svg width="1024" height="1024" viewBox="0 0 1024 1024" fill="none" xmlns="http://www.w3.org/2000/svg">
<path d="M490 834C501 830 514 835 518 845C523 856 518 869 507 873L460 894C457 896 453 897 449 897C445 897 441 896 437 894L436 893L141 763C133 759 128 752 128 743V283C128 278 130 274 132 270C135 266 139 263 144 262L440 131C446 128 452 128 457 131L757 263C765 267 770 274 770 283V379C770 390 760 400 748 400C737 400 727 390 727 379V315L470 428V843L490 834ZM449 174L202 282L449 392L696 282L449 174ZM171 315V729L428 843V429L171 315ZM883 507C891 511 896 518 896 527V785C896 793 891 801 883 804L716 879C713 880 710 880 707 880C704 880 701 880 698 879L532 805C531 805 530 804 529 803C520 799 516 789 518 780V531C517 527 517 522 519 518C522 512 526 508 531 506L698 433C701 432 704 431 707 431C710 431 713 432 716 433L883 507ZM707 578L821 527L707 476L592 527L707 578ZM560 559V771L686 827V615L560 559ZM728 826L853 771V559L728 615V826Z" fill="#333333"/>
</svg>
