<svg width="1024" height="1024" viewBox="0 0 1024 1024" fill="none" xmlns="http://www.w3.org/2000/svg">
<path d="M822.5 895.799H339.5C327.6 895.799 318 886.199 318 874.299V848.099C318 836.199 327.6 826.599 339.5 826.599C351.4 826.599 361 836.199 361 848.099V852.799H801V424.799L746.4 370.199C738 361.799 738 348.199 746.4 339.799C754.8 331.399 768.4 331.399 776.8 339.799L837.7 400.699C841.7 404.699 844 410.199 844 415.899V874.299C844 886.099 834.4 895.799 822.5 895.799Z" fill="#333333"/>
<path d="M684.5 792.199H201.5C189.6 792.199 180 782.599 180 770.699V149.699C180 137.799 189.6 128.199 201.5 128.199H521.1C521.2 128.199 521.3 128.199 521.4 128.199C527.1 128.099 532.8 130.299 537 134.499L699.6 297.099C703.6 301.099 705.9 306.599 705.9 312.299V770.699C706 782.599 696.4 792.199 684.5 792.199ZM223 749.199H663V333.899H521.9C510 333.899 500.4 324.299 500.4 312.399V171.199H223V749.199ZM543.4 290.899H632.6L543.4 201.699V290.899Z" fill="#333333"/>
<path d="M581 654.199H305C293.1 654.199 283.5 644.599 283.5 632.699C283.5 620.799 293.1 611.199 305 611.199H581C592.9 611.199 602.5 620.799 602.5 632.699C602.5 644.599 592.9 654.199 581 654.199Z" fill="#333333"/>
<path d="M581 550.799H305C293.1 550.799 283.5 541.199 283.5 529.299C283.5 517.399 293.1 507.799 305 507.799H581C592.9 507.799 602.5 517.399 602.5 529.299C602.5 541.199 592.9 550.799 581 550.799Z" fill="#333333"/>
<path d="M581 447.199H305C293.1 447.199 283.5 437.599 283.5 425.699C283.5 413.799 293.1 404.199 305 404.199H581C592.9 404.199 602.5 413.799 602.5 425.699C602.5 437.599 592.9 447.199 581 447.199Z" fill="#333333"/>
</svg>
