<svg width="1024" height="1024" viewBox="0 0 1024 1024" fill="none" xmlns="http://www.w3.org/2000/svg">
<path d="M897 589.002C900 738.002 783 859.002 637 861.002H633C534 861.002 445 807.002 399 720.002C385 692.002 375 663.002 369 634.002L349 656.002C343 662.002 333 668.002 320 668.002H319C304 668.002 290 660.002 275 646.002C275 646.002 273 644.002 270 642.002C261 631.002 256 618.002 256 603.002C257 589.002 263 575.002 273 566.002L362 461.002C377 443.002 399 430.002 423 428.002C422 423.002 422 419.002 423 414.002C424 400.002 432 387.002 443 379.002C469 351.002 498 357.002 512 368.002C491 328.002 449 299.002 401 296.002H390C315 296.002 253 357.002 253 432.002V437.002C253 472.002 224 501.002 189 501.002C154 501.002 125 472.002 125 437.002C123 288.002 239 167.002 385 165.002C488 163.002 584 222.002 629 316.002C640 341.002 649 366.002 655 393.002L676 370.002C681 365.002 691 359.002 704 359.002C721 360.002 734 366.002 749 381.002C749 381.002 752 383.002 754 385.002C774 406.002 773 440.002 751 461.002L660 565.002C646 583.002 624 596.002 600 598.002C602 616.002 595 635.002 579 647.002C554 674.002 525 670.002 511 659.002C533 699.002 574 727.002 622 730.002H632C707 730.002 769 669.002 769 593.002V589.002C769 554.002 798 525.002 833 525.002C869 525.002 897 554.002 897 589.002ZM465 420.002C464 423.002 465 426.002 467 428.002L562 537.002C571 548.002 583 555.002 596 556.002C607 555.002 619 548.002 627 538.002L720 431.002C726 425.002 727 418.002 722 414.002C722 413.002 720 411.002 719 411.002C711 402.002 705 401.002 705 402.002L655 455.002C647 463.002 633 464.002 625 456.002C622 453.002 620 449.002 619 445.002C618 443.002 618 442.002 618 441.002C615 404.002 606 368.002 590 334.002C553 256.002 472 205.002 386 208.002C263 210.002 166 311.002 168 433.002C168 449.002 177 458.002 189 458.002C201 458.002 210 449.002 210 437.002V432.002C211 334.002 291 253.002 390 253.002H403C501 259.002 576 344.002 570 441.002C570 444.002 569 448.002 567 451.002C566 453.002 565 454.002 563 456.002C557 461.002 549 463.002 541 460.002C537 459.002 533 456.002 530 452.002L483 399.002C484 401.002 479 402.002 472 410.002C467 414.002 465 417.002 465 420.002ZM792 751.002C834 708.002 856 652.002 855 593.002C855 577.002 845 568.002 833 568.002C822 568.002 812 577.002 812 589.002V594.002C812 692.002 731 773.002 632 773.002H619C523 767.002 449 684.002 453 589.002C452 582.002 454 575.002 460 570.002C466 564.002 475 563.002 482 566.002C486 568.002 490 570.002 492 574.002L539 627.002C538 625.002 543 624.002 551 616.002C558 610.002 559 603.002 555 598.002L460 489.002C451 478.002 439 471.002 426 470.002C416 471.002 403 478.002 395 488.002L304 595.002C300 599.002 299 602.002 299 605.002C299 606.002 299 610.002 302 612.002C302 613.002 305 615.002 305 616.002C314 624.002 319 625.002 320 625.002L367 572.002C375 563.002 389 562.002 398 570.002C403 575.002 405 582.002 404 588.002C409 628.002 420 665.002 437 701.002C476 775.002 552 820.002 637 818.002C696 817.002 751 793.002 792 751.002Z" fill="#333333"/>
</svg>
