<svg width="1024" height="1024" viewBox="0 0 1024 1024" fill="none" xmlns="http://www.w3.org/2000/svg">
<path d="M865.8 371.798C865.7 360.498 857 351.298 845.9 350.498C778.3 333.698 698.9 333.598 692.5 333.698C684.3 333.598 579.7 332.998 512 395.398C443.2 331.898 336.1 333.598 331.2 333.698C319.5 333.998 310.2 343.498 310.2 355.198V598.598C310.2 610.298 319.5 619.798 331.2 620.098C443.3 622.598 490.3 676.298 495.3 682.398C499.4 687.398 505.5 690.298 512 690.298C518.5 690.298 524.6 687.398 528.7 682.398C533.7 676.298 580.7 622.598 692.8 620.098C704.5 619.798 713.8 610.298 713.8 598.598V424.898C713.8 412.998 704.2 403.398 692.3 403.398C680.4 403.398 670.8 412.998 670.8 424.898V578.098C624.9 581.598 583.8 593.298 548.5 612.998C532.7 621.798 520.7 630.798 511.9 638.398C503.2 630.798 491.1 621.798 475.3 612.998C440 593.298 399 581.598 353 578.098V377.698C364.2 378.698 379 380.598 395.1 384.298C445.1 395.898 474.1 417.198 490.3 434.698V579.098C490.3 590.998 499.9 600.598 511.8 600.598C523.7 600.598 533.3 590.998 533.3 579.098V434.698C587.9 375.298 690.6 376.698 691.6 376.698C691.8 376.698 692 376.698 692.2 376.698C692.9 376.698 761.6 376.498 822.4 389.298C822.1 404.998 821.4 420.798 820.1 436.398C814.3 509.198 807.1 599.798 750.7 691.398C707.7 761.798 602.8 808.998 540.1 837.198C529.6 841.898 520.1 846.198 512 850.098C503.8 846.198 494.4 841.898 483.9 837.198C421.2 808.998 316.3 761.798 273 691.498C216.6 599.898 209.4 509.298 203.6 436.498C199.5 385.298 200.7 333.498 207.1 282.298C255.9 275.498 357.8 250.798 413.1 224.698C426.9 218.198 440.2 212.198 451.9 206.998C477 195.798 497.1 186.798 511.9 177.198C526.7 186.698 546.8 195.798 571.9 206.998C583.6 212.298 597 218.198 610.7 224.698C674.5 254.798 800.3 282.998 835.1 284.198C847 284.598 856.9 275.298 857.3 263.398C857.7 251.498 848.4 241.598 836.5 241.198C806.3 240.198 686.3 212.798 629.1 185.798C614.9 179.098 601.4 173.098 589.5 167.698C562 155.398 538.2 144.698 528.3 135.898C524.3 131.198 518.4 128.398 512 128.398H511.8C505.4 128.398 499.5 131.198 495.5 135.898C485.6 144.698 461.7 155.398 434.3 167.698C422.4 172.998 408.8 179.098 394.7 185.798C337.5 212.798 217.5 240.198 187.3 241.198C176.9 241.498 168.2 249.298 166.7 259.598C157.9 319.398 155.9 380.098 160.6 439.998C166.4 513.298 174.4 613.698 236.2 714.198C286.4 795.798 398.9 846.398 466.1 876.598C479.8 882.798 491.7 888.098 500.5 892.598C503.8 894.598 507.7 895.798 511.8 895.798H511.9C516 895.798 519.9 894.598 523.2 892.598C532 888.098 543.9 882.798 557.6 876.598C625 846.198 737.4 795.598 787.7 713.998C849.6 613.598 857.5 513.198 863.3 439.798C865.1 417.298 865.9 394.498 865.8 371.798Z" fill="#333333"/>
</svg>
