<svg width="1024" height="1024" viewBox="0 0 1024 1024" fill="none" xmlns="http://www.w3.org/2000/svg">
<path d="M822 841C834 841 844 832 844 820C844 808 834 798 822 798H204V205C204 193 194 183 182 183C171 183 161 193 161 205V820C161 832 171 841 182 841H822ZM340 641C348 641 355 636 359 629L427 500L483 531C492 536 502 534 509 527L656 366L841 364C853 364 862 354 862 342C862 330 851 320 840 321L646 323C640 323 635 326 631 330L489 485L429 452C424 450 418 449 413 451C407 452 403 456 400 461L344 567L290 416C286 405 274 399 263 403C251 407 246 420 250 431L320 626C323 634 330 640 339 641H340Z" fill="#333333"/>
</svg>
