<svg width="1024" height="1024" viewBox="0 0 1024 1024" fill="none" xmlns="http://www.w3.org/2000/svg">
<path d="M401 399L491 482V149C491 138 500 128 512 128C524 128 533 138 533 149V480L623 399C632 391 645 392 653 401C661 410 661 423 652 431L525 545C521 549 516 550 511 550C506 550 500 549 496 545L372 431C363 423 363 409 371 401C379 392 392 391 401 399ZM858 505H810V554H858C869 554 879 563 879 575C879 587 869 597 858 597H810V646H858C869 646 879 656 879 667C879 679 869 689 858 689H810V806C810 817 800 827 789 827H672V875C672 886 662 896 650 896C638 896 629 886 629 875V827H579V875C579 886 570 896 558 896C546 896 537 886 537 875V827H487V875C487 886 478 896 466 896C454 896 445 886 445 875V827H395V875C395 886 386 896 374 896C362 896 352 886 352 875V827H236C224 827 214 817 214 806V689H166C155 689 145 679 145 667C145 656 155 646 166 646H214V597H166C155 597 145 587 145 575C145 563 155 554 166 554H214V505H166C155 505 145 495 145 483C145 472 155 462 166 462H214V413H166C155 413 145 403 145 391C145 379 155 370 166 370H214V253C214 241 224 232 236 232H408C420 232 430 241 430 253C430 265 420 274 408 274H257V784H767V274H616C604 274 594 265 594 253C594 241 604 232 616 232H789C800 232 810 241 810 253V370H858C869 370 879 379 879 391C879 403 869 413 858 413H810V462H858C869 462 879 472 879 483C879 495 869 505 858 505Z" fill="#333333"/>
</svg>
