<svg width="1024" height="1024" viewBox="0 0 1024 1024" fill="none" xmlns="http://www.w3.org/2000/svg">
<path d="M524 739C524 739 506 750 495 750C484 750 474 746 466 739C457 732 453 720 453 709C453 685 472 666 496 666C507 667 517 672 524 680C532 687 537 698 536 709C537 720 532 731 524 739ZM522 593C522 603 509 608 493 608C476 608 464 600 465 584C469 453 593 472 593 399C593 359 564 333 513 333C461 330 416 370 413 422C413 424 363 422 363 385C363 347 410 273 513 273C605 273 661 323 661 393C661 509 525 493 522 593Z" fill="#333333"/>
<path fill-rule="evenodd" clip-rule="evenodd" d="M512 853C700.329 853 853 700.329 853 512C853 323.671 700.329 171 512 171C323.671 171 171 323.671 171 512C171 700.329 323.671 853 512 853ZM512 896C724.077 896 896 724.077 896 512C896 299.923 724.077 128 512 128C299.923 128 128 299.923 128 512C128 724.077 299.923 896 512 896Z" fill="#333333"/>
</svg>
