<svg width="1024" height="1024" viewBox="0 0 1024 1024" fill="none" xmlns="http://www.w3.org/2000/svg">
<path fill-rule="evenodd" clip-rule="evenodd" d="M666.45 212.326L666.449 212.327L483.569 395.23C437.332 441.468 436.152 510.278 474.949 549.075C481.852 555.978 489.596 561.566 497.923 565.871C508.471 571.326 512.6 584.298 507.146 594.847C501.692 605.395 488.719 609.524 478.171 604.07C465.996 597.775 454.64 589.581 444.542 579.483C386.334 521.274 392.874 425.112 453.162 364.823L636.041 181.921L636.042 181.92C696.322 121.639 792.492 115.101 850.699 173.309C908.907 231.518 902.367 327.68 842.079 387.97L693.871 536.18C685.474 544.577 671.86 544.577 663.464 536.18C655.067 527.783 655.067 514.169 663.464 505.772L811.672 357.562C857.909 311.324 859.089 242.515 820.292 203.717C781.494 164.918 712.677 166.1 666.45 212.326Z" fill="#333333"/>
<path fill-rule="evenodd" clip-rule="evenodd" d="M516.881 429.154C522.335 418.605 535.307 414.476 545.855 419.93C558.03 426.226 569.387 434.419 579.485 444.517C637.693 502.726 631.153 598.888 570.864 659.178L387.965 842.081C327.685 902.361 231.514 908.899 173.307 850.691C115.099 792.482 121.639 696.32 181.928 636.03L330.136 487.82C338.533 479.423 352.146 479.423 360.543 487.82C368.94 496.217 368.94 509.831 360.543 518.228L212.335 666.438C166.098 712.676 164.917 781.486 203.715 820.283C242.513 859.082 311.331 857.9 357.557 811.673L540.457 628.77C586.695 582.532 587.875 513.723 549.078 474.925C542.175 468.022 534.43 462.434 526.104 458.129C515.556 452.675 511.427 439.702 516.881 429.154Z" fill="#333333"/>
</svg>
