<svg width="1024" height="1024" viewBox="0 0 1024 1024" fill="none" xmlns="http://www.w3.org/2000/svg">
<path d="M829 842L833 246C833 236 829 230 821 226L647 124C637 120 629 120 623 124C615 128 611 136 611 146L617 314C617 322 619 328 625 332C629 336 635 338 645 338L765 312C771 310 777 306 781 300C783 294 785 288 783 282C781 276 779 270 773 266C767 264 761 262 755 264L663 284L661 188L785 260L781 842C781 852 777 856 767 856H253C243 856 239 852 239 842V192C239 182 243 178 253 178H523C529 178 535 176 541 170C545 166 547 160 547 154C547 148 545 142 541 136C535 132 529 130 523 130H253C235 130 221 136 209 148C197 160 191 174 191 192V842C191 860 197 874 209 886C221 898 235 904 253 904H767C785 904 799 898 811 886C823 874 829 860 829 842ZM709 472C709 466 707 460 703 454C697 450 691 448 685 448H319C313 448 309 450 303 454C297 460 295 466 295 472C295 478 297 484 303 488C307 494 313 496 319 496H685C691 496 697 494 703 488C707 484 709 478 709 472ZM709 596C709 590 707 584 703 578C697 574 691 572 685 572H319C313 572 307 574 303 578C297 584 295 590 295 596C295 602 297 606 303 612C309 618 313 620 319 620H685C691 620 697 618 703 612C707 608 709 602 709 596ZM709 718C709 712 707 706 703 700C697 696 691 694 685 694H319C313 694 307 696 303 700C297 706 295 712 295 718C295 724 297 730 303 734C307 740 313 742 319 742H685C691 742 697 740 703 734C707 730 709 724 709 718Z" fill="#333333"/>
</svg>
