<svg width="1024" height="1024" viewBox="0 0 1024 1024" fill="none" xmlns="http://www.w3.org/2000/svg">
<path d="M273 842C285 842 294 833 294 821V465H332C344 465 353 455 353 443V224H521V608C521 620 531 630 542 630H617V741C617 753 626 762 638 762L758 765C763 765 769 763 773 759C777 755 779 750 779 744V344H853L852 820C852 832 861 842 873 842C883 842 894 832 894 821L896 323C896 317 894 312 890 308C886 304 880 302 875 302H758C746 302 737 311 737 323V722L660 720V608C660 597 650 587 638 587H564V203C564 191 554 182 542 182H332C320 182 311 191 311 203V422H273C261 422 252 432 252 443V800H149C138 800 128 809 128 821C128 833 138 842 149 842H273Z" fill="#333333"/>
</svg>
