<svg width="1024" height="1024" viewBox="0 0 1024 1024" fill="none" xmlns="http://www.w3.org/2000/svg">
<path d="M789 896C800 896 810 886 810 875V339C810 334 808 328 804 324L613 134C609 130 604 128 598 128H236C224 128 214 138 214 149V875C214 886 224 896 236 896H789ZM257 853V171H577V339C577 351 586 361 598 361H767V853H257ZM619 318V201L737 318H619ZM477 378C489 378 499 368 499 357C499 345 489 335 477 335H339C327 335 318 345 318 357C318 368 327 378 339 378H477ZM504 709C513 709 520 704 524 696L595 545L614 582C618 589 625 594 633 594C641 594 648 589 652 582L704 486C709 475 705 462 695 457C685 451 672 455 666 466L633 527L612 488C609 480 603 476 593 476C585 476 578 481 574 488L509 626L472 492C469 483 462 477 453 476C444 476 435 481 432 489L394 573C389 584 394 596 404 601C415 606 428 601 432 590L446 560L484 693C486 702 494 708 503 709H504ZM685 792C697 792 706 783 706 771C706 759 697 750 685 750H361V476C361 464 351 454 339 454C327 454 318 464 318 476V771C318 783 327 792 339 792H685Z" fill="#333333"/>
</svg>
