<svg width="1024" height="1024" viewBox="0 0 1024 1024" fill="none" xmlns="http://www.w3.org/2000/svg">
<path d="M789 186C848 186 896 234 896 293V782C896 841 848 889 789 889H235C176 889 128 841 128 782V293C128 234 176 186 235 186H350V157C350 145 359 135 371 135C383 135 393 145 393 157V186H631V157C631 145 641 135 653 135C665 135 674 145 674 157V186H789ZM235 229C199 229 171 257 171 293V354H853V293C853 257 825 229 789 229H674V262C674 274 665 283 653 283C641 283 631 274 631 262V229H393V262C393 274 383 283 371 283C359 283 350 274 350 262V229H235ZM789 846C825 846 853 817 853 782V397H171V782C171 817 199 846 235 846H789Z" fill="#333333"/>
</svg>
