<svg width="1024" height="1024" viewBox="0 0 1024 1024" fill="none" xmlns="http://www.w3.org/2000/svg">
<path fill-rule="evenodd" clip-rule="evenodd" d="M385.663 238.708C394.102 176.471 447.449 128.5 512 128.5C576.553 128.5 629.899 176.47 638.337 238.714C763.812 288.878 852.5 411.556 852.5 555C852.5 743.053 700.053 895.5 512 895.5C323.947 895.5 171.5 743.053 171.5 555C171.5 411.587 260.162 288.882 385.663 238.708ZM433.985 223.479C459.038 217.606 485.156 214.5 512 214.5C522.057 214.5 532.018 214.937 541.863 215.793C553.692 216.821 562.448 227.245 561.419 239.075C560.39 250.904 549.967 259.66 538.137 258.631C529.53 257.883 520.812 257.5 512 257.5C347.695 257.5 214.5 390.695 214.5 555C214.5 719.305 347.695 852.5 512 852.5C676.305 852.5 809.5 719.305 809.5 555C809.5 425.378 726.589 315.065 610.841 274.307L596.758 269.348L596.486 254.42C595.647 208.486 558.141 171.5 512 171.5C476.857 171.5 446.724 192.954 433.985 223.479Z" fill="#333333"/>
<path fill-rule="evenodd" clip-rule="evenodd" d="M683.5 554C683.5 542.126 693.126 532.5 705 532.5H745C756.874 532.5 766.5 542.126 766.5 554C766.5 565.874 756.874 575.5 745 575.5H705C693.126 575.5 683.5 565.874 683.5 554Z" fill="#333333"/>
<path fill-rule="evenodd" clip-rule="evenodd" d="M512 725.5C523.874 725.5 533.5 735.126 533.5 747V787C533.5 798.874 523.874 808.5 512 808.5C500.126 808.5 490.5 798.874 490.5 787V747C490.5 735.126 500.126 725.5 512 725.5Z" fill="#333333"/>
<path fill-rule="evenodd" clip-rule="evenodd" d="M512 301.5C523.874 301.5 533.5 311.126 533.5 323V363C533.5 374.874 523.874 384.5 512 384.5C500.126 384.5 490.5 374.874 490.5 363V323C490.5 311.126 500.126 301.5 512 301.5Z" fill="#333333"/>
<path fill-rule="evenodd" clip-rule="evenodd" d="M258.5 554C258.5 542.126 268.126 532.5 280 532.5H320C331.874 532.5 341.5 542.126 341.5 554C341.5 565.874 331.874 575.5 320 575.5H280C268.126 575.5 258.5 565.874 258.5 554Z" fill="#333333"/>
<path d="M512.5 575C524.374 575 534 565.374 534 553.5C534 541.626 524.374 532 512.5 532C500.626 532 491 541.626 491 553.5C491 565.374 500.626 575 512.5 575Z" fill="#333333"/>
<path fill-rule="evenodd" clip-rule="evenodd" d="M588.453 455.156L570.81 508.333C567.071 519.603 573.176 531.77 584.446 535.51C595.717 539.249 607.884 533.144 611.623 521.873L641.782 430.97C650.656 404.222 620.56 381.45 597.232 397.261L449.617 497.306C445.752 499.925 442.845 503.732 441.335 508.151L383.34 677.862C374.208 704.584 404.227 727.63 427.683 711.904L577.045 611.765C586.907 605.153 589.542 591.797 582.93 581.934C576.317 572.072 562.962 569.437 553.099 576.049L436.966 653.91L479.698 528.864L588.453 455.156Z" fill="#333333"/>
</svg>
