<svg width="1024" height="1024" viewBox="0 0 1024 1024" fill="none" xmlns="http://www.w3.org/2000/svg">
<path d="M360.941 890C356.965 890 353.068 888.887 349.693 886.786C346.318 884.686 343.598 881.683 341.842 878.117L176.197 542.553C174.743 539.607 173.992 536.365 174 533.081C174.009 529.796 174.777 526.558 176.246 523.62C177.715 520.682 179.843 518.123 182.466 516.144C185.088 514.165 188.133 512.82 191.363 512.213L243.685 502.39C245.409 469.287 268.816 445.7 295.493 438.125C325.745 429.53 364.972 440.234 387.062 481.427C410.192 475.654 438.711 467.178 439.068 467.069C443.885 465.645 449.05 465.968 453.652 467.981C458.254 469.994 461.996 473.567 464.219 478.07L534.996 620.84C537.365 625.598 537.868 631.07 536.406 636.18C534.943 641.29 531.622 645.669 527.094 648.455C522.566 651.241 517.159 652.234 511.936 651.237C506.713 650.241 502.052 647.327 498.869 643.07C488.805 629.643 482.257 624.483 479.058 622.553C475.888 627.9 472.53 640.466 471.678 651.002C471.44 653.881 470.619 656.681 469.266 659.234C467.912 661.786 466.054 664.037 463.804 665.851C461.554 667.664 458.959 669.001 456.176 669.781C453.394 670.561 450.482 670.769 447.617 670.39C432.689 668.409 414.927 668.409 406.379 670.172C406.319 687.649 412.322 701.413 424.526 712.098C429.916 716.758 436.024 720.517 442.614 723.228C457.374 720.94 497.324 711.593 523.931 704.939C526.859 704.208 529.909 704.108 532.878 704.644C535.848 705.18 538.67 706.34 541.157 708.048C546.952 712.009 569.488 723.198 653.519 740.893C701.186 750.924 745.089 758.034 745.525 758.103C764.861 761.173 790.18 762.153 800.72 749.36C813.092 734.348 805.297 702.037 801.592 691.927C801.322 691.205 801.094 690.467 800.908 689.719C791.993 654.18 718.303 522.838 681.266 458.939L618.591 480.833C613.994 482.442 608.984 482.427 604.397 480.791C599.809 479.155 595.921 475.996 593.381 471.842L548.191 397.912C545.392 393.334 544.425 387.868 545.485 382.607C546.545 377.347 549.552 372.681 553.906 369.543L567.388 359.819C587.616 339.024 598.73 312.516 598.73 284.938C598.727 266.264 593.852 247.913 584.588 231.696C575.323 215.48 561.988 201.959 545.9 192.467C529.812 182.975 511.525 177.841 492.846 177.57C474.166 177.3 455.739 181.904 439.382 190.926C423.026 199.949 409.306 213.079 399.576 229.021C389.846 244.963 384.442 263.165 383.898 281.832C383.355 300.498 387.689 318.984 396.475 335.465C405.26 351.946 418.193 365.852 433.996 375.811C436.36 377.306 438.407 379.252 440.019 381.538C441.631 383.824 442.776 386.405 443.39 389.134C444.004 391.863 444.075 394.685 443.597 397.441C443.12 400.197 442.104 402.832 440.608 405.195C439.112 407.559 437.165 409.604 434.878 411.216C432.592 412.827 430.01 413.972 427.28 414.586C424.55 415.2 421.726 415.27 418.97 414.793C416.213 414.316 413.577 413.3 411.213 411.805C389.75 398.331 372.068 379.621 359.832 357.434C347.596 335.247 341.208 310.313 341.268 284.978C341.268 202.275 408.568 135 491.291 135C574.015 135 641.325 202.236 641.325 284.978C641.325 324.448 625.357 362.146 596.353 391.139C595.858 391.633 595.339 392.103 594.798 392.545L620.761 435.006L683.772 412.964C688.42 411.34 693.487 411.377 698.111 413.069C702.735 414.76 706.629 418.002 709.131 422.242C721.305 442.977 827.783 625.236 841.869 678.272C845.47 688.811 847.927 699.707 849.199 710.771C852.171 737.606 846.842 760.282 833.716 776.293C814.994 799.167 783.048 807.198 738.779 800.168C738.284 800.088 693.519 792.84 644.881 782.611C569.33 766.688 539.028 755.083 525.784 748.399C504.228 753.697 456.195 765.233 441.742 766.223C439.332 766.393 436.91 766.152 434.581 765.51C420.529 761.154 407.551 753.89 396.493 744.191C379.554 729.397 360.217 702.602 364.338 658.725C364.409 657.95 364.525 657.18 364.685 656.418C366.141 649.328 371.5 636.505 390.965 630.346C398.533 627.939 407.706 626.642 419.009 626.385C423.734 626.276 428.399 626.385 432.698 626.533C433.105 624.86 433.54 623.147 434.036 621.404C440.465 598.728 451.609 584.924 467.151 580.389L467.369 580.33L433.966 512.946C417.899 517.51 394.204 523.986 378.811 527.056C373.772 528.06 368.54 527.21 364.078 524.662C359.617 522.115 356.226 518.042 354.532 513.193C347.597 493.26 331.005 472.386 307.122 479.169C288.975 484.318 284.042 501.004 287.211 515.243C287.829 518.028 287.881 520.909 287.363 523.715C286.846 526.52 285.77 529.193 284.199 531.575C282.629 533.957 280.595 535.999 278.22 537.58C275.845 539.162 273.176 540.25 270.372 540.781L226.786 548.96L372.233 843.46L476.661 814.407C479.37 813.608 482.211 813.355 485.018 813.664C487.826 813.973 490.544 814.837 493.014 816.206C495.485 817.575 497.658 819.421 499.408 821.638C501.158 823.854 502.449 826.397 503.206 829.117C503.964 831.837 504.172 834.68 503.82 837.482C503.468 840.283 502.561 842.987 501.154 845.435C499.746 847.883 497.866 850.026 495.622 851.741C493.377 853.455 490.814 854.707 488.082 855.422L366.656 889.218C364.796 889.739 362.873 890.002 360.941 890Z" fill="#333333"/>
</svg>
