<svg width="1024" height="1024" viewBox="0 0 1024 1024" fill="none" xmlns="http://www.w3.org/2000/svg">
<path d="M809 896C857 896 896 857 896 809V215C896 167 857 128 809 128H215C167 128 128 167 128 215V809C128 857 167 896 215 896H809ZM215 171H809C833 171 853 191 853 215V809C853 833 833 853 809 853H215C191 853 171 833 171 809V215C171 191 191 171 215 171ZM512 738C637 738 738 637 738 512C738 387 637 286 512 286C387 286 286 387 286 512C286 637 387 738 512 738ZM512 329C613 329 695 411 695 512C695 613 613 695 512 695C411 695 329 613 329 512C329 411 411 329 512 329ZM512 612C524 612 533 603 533 591V433C533 421 524 412 512 412C500 412 491 421 491 433V591C491 603 500 612 512 612Z" fill="#333333"/>
</svg>
