<svg width="1024" height="1024" viewBox="0 0 1024 1024" fill="none" xmlns="http://www.w3.org/2000/svg">
<path d="M446 896C450 896 454 895 457 893L836 661C842 657 846 650 846 643V253C846 246 842 239 836 235L772 195C765 190 756 191 749 195L698 227L575 132C568 127 558 127 551 131L188 349C182 353 178 359 178 367V601C178 607 181 613 186 617L323 727V785C323 797 333 806 344 806C356 806 366 797 366 785V717C366 710 363 704 358 700L221 590V379L560 175L683 270C690 275 700 276 708 271L761 238L803 265V631L467 837L466 487L646 385L648 508L568 557V528C568 516 558 507 547 507C535 507 525 516 525 528V595C525 603 529 610 536 613C543 617 551 617 558 613L680 538C687 534 690 527 690 520L689 348C689 340 685 333 678 330C671 326 663 326 657 330L434 456C427 460 423 467 423 475L425 875C425 882 429 890 435 893C439 895 442 896 446 896ZM673 643C677 643 680 642 683 640L694 634C703 628 706 617 700 608C695 599 683 596 674 601L664 607C658 611 655 616 655 623C655 634 663 642 673 643ZM619 676C623 676 626 675 629 674L639 667C648 662 651 650 646 642C640 633 629 630 620 635L610 641C604 644 601 650 601 656C600 667 608 676 619 676ZM562 711C565 711 568 711 571 709L582 703C591 697 594 686 588 677C583 668 571 665 562 670L552 676C543 681 540 693 545 702C549 708 555 711 562 711Z" fill="#333333"/>
</svg>
