<svg width="1024" height="1024" viewBox="0 0 1024 1024" fill="none" xmlns="http://www.w3.org/2000/svg">
<path d="M400 897C406 897 412 894 416 889C424 881 423 867 414 859C354 809 358 769 365 751C491 769 590 748 662 690C773 599 791 435 796 321C799 264 823 210 864 169C870 163 872 154 868 146C865 137 857 132 848 133C821 134 785 133 743 131C546 125 217 113 162 357C107 603 297 661 299 662C305 663 312 662 317 659C322 655 325 650 326 643C343 493 454 368 601 332C613 329 620 318 617 306C614 295 603 288 591 290C436 328 317 455 288 611C247 588 168 524 204 366C251 157 546 167 741 174C764 175 784 176 803 176C773 218 756 267 753 319C749 426 732 577 635 657C570 709 477 726 357 707C349 706 342 709 337 715C336 716 274 797 386 892C390 895 395 897 400 897Z" fill="#333333"/>
</svg>
