<svg width="1024" height="1024" viewBox="0 0 1024 1024" fill="none" xmlns="http://www.w3.org/2000/svg">
<path d="M709 155C727 173 738 197 738 223V799C738 853 695 896 641 896H382C357 896 334 886 315 869C297 851 286 827 286 801V225C286 171 329 128 383 128H640C665 128 690 137 709 155ZM695 799V225C695 194 669 169 640 171H384C368 171 355 176 344 187C334 197 329 210 329 225V267H626C638 267 648 276 648 288C648 300 638 309 626 309H329V695H625C637 695 646 705 646 717C646 729 637 738 625 738H329V799C329 815 335 828 345 838C355 848 368 853 384 853H640C671 853 695 829 695 799ZM575 204C587 204 597 213 597 225C597 237 587 246 575 246H449C437 246 428 237 428 225C428 213 437 204 449 204H575ZM543 789V791C546 808 534 824 516 826C500 829 484 817 481 801C478 784 489 767 506 764C523 761 540 772 543 789Z" fill="#333333"/>
</svg>
