<svg width="1024" height="1024" viewBox="0 0 1024 1024" fill="none" xmlns="http://www.w3.org/2000/svg">
<path d="M667 891.999C677 891.999 687 888.999 696 882.999C708 874.999 716 862.999 718 848.999C721 835.999 718 821.999 710 809.999L580 618.999L582 447.999L648 540.999C663 565.999 695 573.999 720 558.999C738 547.999 748 527.999 746 507.999C745 503.999 744 500.999 742 497.999C741 496.999 649 361.999 630 332.999C615 309.999 592 293.999 566 287.999H532V284.999C562 270.999 581 239.999 579 206.999C575 160.999 534 126.999 489 130.999C449 133.999 417 165.999 414 206.999C412 231.999 423 255.999 442 272.999C451 279.999 464 278.999 472 270.999C479 261.999 478 247.999 469 239.999C461 232.999 456 220.999 456 209.999C458 190.999 473 174.999 493 172.999C515 171.999 534 187.999 536 209.999C537 227.999 525 244.999 507 247.999C497 250.999 490 258.999 490 268.999V308.999C490 320.999 499 329.999 511 329.999H559C573 333.999 586 343.999 594 355.999C611 381.999 684 489.999 703 515.999C702 518.999 700 520.999 698 521.999C693 524.999 687 522.999 683 516.999L578 369.999C573 361.999 563 358.999 555 361.999C546 363.999 540 372.999 540 381.999L537 624.999C537 628.999 538 633.999 541 636.999L675 833.999C678 837.999 677 844.999 672 847.999C668 850.999 661 849.999 658 843.999C656 841.999 481 595.999 470 580.999C461 562.999 455 543.999 451 527.999V392.999C451 384.999 447 377.999 440 373.999C433 370.999 424 370.999 418 375.999L351 421.999C345 425.999 342 431.999 342 438.999L338 521.999C338 526.999 334 530.999 329 530.999C326 531.999 323 529.999 322 528.999L318 525.999L324 414.999L444 323.999C453 316.999 455 303.999 448 293.999C441 284.999 428 282.999 418 289.999L290 386.999C285 390.999 282 396.999 282 402.999L276 526.999C277 540.999 284 553.999 295 562.999C306 571.999 321 575.999 334 573.999C359 570.999 378 551.999 381 525.999L384 450.999L409 433.999V531.999C413 555.999 421 578.999 434 602.999C446 620.999 616 858.999 623 868.999C631 879.999 643 887.999 657 890.999C660 891.999 663 891.999 667 891.999ZM365 893.999H371C385 891.999 397 884.999 407 872.999L482 769.999C489 759.999 487 746.999 477 739.999C468 732.999 455 734.999 448 744.999L373 846.999C369 851.999 363 852.999 359 848.999C356 846.999 355 843.999 355 841.999C355 840.999 355 837.999 358 832.999L444 700.999C450 690.999 447 677.999 437 670.999C427 664.999 414 667.999 408 677.999L324 808.999C315 819.999 311 832.999 313 846.999C314 860.999 321 873.999 332 882.999C342 889.999 353 893.999 365 893.999Z" fill="#333333"/>
</svg>
