<svg width="1024" height="1024" viewBox="0 0 1024 1024" fill="none" xmlns="http://www.w3.org/2000/svg">
<path d="M465 486C477 486 486 476 486 464V149C486 137 477 128 465 128H150C138 128 128 137 128 149V464C128 476 138 486 150 486H465ZM875 486C887 486 896 476 896 464V149C896 137 887 128 875 128H560C548 128 538 137 538 149V464C538 476 548 486 560 486H875ZM171 443V170H424L302 343C288 318 272 293 255 270C248 260 235 258 225 265C215 272 213 285 220 295C243 326 263 359 280 393C283 400 290 404 297 405C305 406 312 402 316 396L444 217V443H171ZM581 443V170H854V443H581ZM465 896C477 896 486 886 486 874V559C486 547 477 538 465 538H150C138 538 128 547 128 559V874C128 886 138 896 150 896H465ZM875 896C887 896 896 886 896 874V559C896 547 887 538 875 538H560C548 538 538 547 538 559V874C538 886 548 896 560 896H875ZM171 853V580H444V853H171ZM581 853V580H834L711 754C697 728 682 703 665 680C658 670 645 668 635 675C626 682 623 695 630 705C653 736 672 769 689 804C692 811 699 815 706 816C714 816 721 813 726 807L854 627V853H581Z" fill="#333333"/>
</svg>
