<svg width="1024" height="1024" viewBox="0 0 1024 1024" fill="none" xmlns="http://www.w3.org/2000/svg">
<path d="M840 896.998C852 896.998 862 886.998 862 875.998V448.998C862 442.998 859 436.998 855 432.998L526 134.998C517 126.998 505 126.998 497 133.998L168 429.998C159 437.998 159 451.998 166 459.998C174 468.998 188 469.998 197 461.998L511 178.998L819 457.998V853.998H244V637.998C253 534.998 383 541.998 390 541.998C436 541.998 470 553.998 490 574.998C514 600.998 512 634.998 512 636.998V750.998C512 762.998 522 771.998 533 771.998C545 771.998 555 762.998 555 750.998V638.998C555 635.998 559 586.998 522 546.998C493 515.998 449 499.998 392 499.998C330 494.998 212 517.998 201 635.998V875.998C201 886.998 211 896.998 223 896.998H840Z" fill="#333333"/>
</svg>
