<svg width="1024" height="1024" viewBox="0 0 1024 1024" fill="none" xmlns="http://www.w3.org/2000/svg">
<path d="M679 786C684 786 688 785 692 782L887 635C893 631 896 625 896 618V305C896 294 889 286 879 284L633 238H627L474 253C464 254 455 263 455 274V291L399 282H393L228 304C217 305 210 314 210 325V624H149C138 624 128 634 128 646C128 657 138 667 149 667H231C243 667 252 657 252 646V344L396 325L473 337C479 338 486 336 490 332C495 328 498 322 498 316V294L628 281L853 322V608L701 722V459C701 449 694 440 684 438L306 353C300 351 293 353 288 357C283 361 280 367 280 374V666C280 676 287 684 296 687L391 710C398 712 404 710 410 706C415 702 418 696 418 690V500L459 509V717C459 727 465 735 474 738L569 766C575 768 582 766 587 763C593 758 596 752 596 745V511C596 499 587 490 575 490C563 490 553 499 553 511V717L502 701V492C502 482 495 474 485 472L401 452C395 450 388 452 383 456C378 460 375 466 375 473V662L323 649V400L658 476V765C658 773 662 780 670 784C673 786 676 786 679 786Z" fill="#333333"/>
</svg>
