<svg width="1024" height="1024" viewBox="0 0 1024 1024" fill="none" xmlns="http://www.w3.org/2000/svg">
<path d="M861 896H863C874 895 883 885 883 873L842 148C841 137 832 128 821 128H820L751 130C740 130 731 139 730 149L698 490L546 340C540 334 530 332 522 336C515 339 509 347 509 356L510 486L361 338C355 332 346 330 338 334C330 337 325 345 325 353L326 486L178 339C172 333 163 332 155 335C147 338 142 346 142 355L141 875C141 880 143 886 147 890C151 894 157 896 163 896H623C635 896 644 886 644 875C644 863 635 853 623 853H184L185 406L332 552C338 558 348 560 356 557C364 554 369 546 369 537L368 405L517 552C523 558 532 560 540 557C548 553 553 546 553 537L552 407L700 552C706 558 714 560 722 557C730 554 735 547 736 539L771 172L800 171L840 876C841 887 850 896 861 896Z" fill="#333333"/>
</svg>
