<svg width="1024" height="1024" viewBox="0 0 1024 1024" fill="none" xmlns="http://www.w3.org/2000/svg">
<path d="M539.044 581.512C528.834 575.449 515.642 578.812 509.58 589.022L346.975 862.882C340.913 873.092 344.276 886.284 354.486 892.346C364.696 898.408 377.887 895.046 383.949 884.835L546.554 610.975C552.616 600.765 549.254 587.574 539.044 581.512Z" fill="#333333"/>
<path d="M710.204 581.512C699.994 575.449 686.802 578.812 680.74 589.022L518.136 862.882C512.073 873.092 515.436 886.284 525.646 892.346C535.856 898.408 549.047 895.046 555.109 884.835L717.714 610.975C723.776 600.765 720.414 587.574 710.204 581.512Z" fill="#333333"/>
<path d="M893.337 589.362C889.514 582.646 882.38 578.498 874.652 578.498H352.606C345.018 578.498 337.993 582.497 334.119 589.021L171.514 862.882C167.569 869.527 167.493 877.778 171.316 884.495C175.139 891.211 182.273 895.359 190.001 895.359H712.048C719.635 895.359 726.661 891.359 730.535 884.835L893.139 610.975C897.085 604.33 897.16 596.078 893.337 589.362ZM836.882 621.498L699.809 852.359H227.771L364.844 621.498H836.882Z" fill="#333333"/>
<path d="M840.426 634.126C828.552 634.126 818.926 643.752 818.926 655.626V813.951C818.926 825.826 828.552 835.451 840.426 835.451C852.3 835.451 861.926 825.826 861.926 813.951V655.626C861.926 643.752 852.3 634.126 840.426 634.126Z" fill="#333333"/>
<path d="M861.926 813.951C861.926 802.077 852.3 792.452 840.426 792.452H746.286C734.412 792.452 724.786 802.078 724.786 813.952C724.786 825.826 734.412 835.452 746.286 835.452L840.426 835.451C852.3 835.451 861.926 825.826 861.926 813.951Z" fill="#333333"/>
<path d="M244.9 528.397C233.026 528.397 223.4 518.772 223.4 506.897V422.997C223.4 411.123 233.026 401.497 244.9 401.497C256.775 401.497 266.4 411.123 266.4 422.997V506.897C266.4 518.772 256.775 528.397 244.9 528.397Z" fill="#333333"/>
<path d="M569 204.298C569 216.172 559.374 225.798 547.5 225.798H463.6C451.726 225.798 442.1 216.172 442.1 204.298C442.1 192.424 451.726 182.798 463.6 182.798H547.5C559.374 182.798 569 192.424 569 204.298Z" fill="#333333"/>
<path d="M462.703 422.701C454.307 431.097 440.693 431.097 432.297 422.701L384.797 375.201C376.401 366.805 376.401 353.191 384.797 344.795C393.193 336.399 406.807 336.399 415.203 344.795L462.703 392.295C471.099 400.691 471.099 414.305 462.703 422.701Z" fill="#333333"/>
<path d="M361.346 132.906C372.442 128.679 384.864 134.248 389.091 145.344C417.171 219.055 384.973 289.732 331.488 329.068C277.868 368.503 199.971 378.736 134.246 330.307C124.686 323.263 122.647 309.804 129.691 300.244C136.734 290.685 150.194 288.646 159.753 295.689C208.028 331.26 265.131 324.493 306.011 294.428C347.026 264.263 368.827 212.94 348.908 160.652C344.681 149.556 350.249 137.134 361.346 132.906Z" fill="#333333"/>
</svg>
