<svg width="1024" height="1024" viewBox="0 0 1024 1024" fill="none" xmlns="http://www.w3.org/2000/svg">
<path d="M836.4 647.5V579.1C836.4 569.2 828.4 561.1 818.5 561.1H733C723.5 561.1 715.6 568.8 715.1 578.4C714.8 584.8 711.9 605.6 688.8 605.6C665.3 605.6 661.8 583.6 661.4 577C661.4 576.5 661.2 576 661.2 575.5C661.1 575 661.1 574.5 661 574.1C661 573.9 660.9 573.8 660.9 573.6C660.9 573.5 660.9 573.5 660.9 573.4C642 491.7 575.2 417 495.4 384.3C523.4 356.9 540.8 316.7 540.8 275.2C540.8 195.4 476.5 128 400.5 128C324.4 128 260.2 195.4 260.2 275.2C260.2 316.5 277.5 356.7 305.3 384.1C208.7 422.6 144 516.6 144 623.8V688.6C144 698.5 152 706.6 161.9 706.6C171.8 706.6 179.8 698.5 179.8 688.6V623.8C179.8 521 249.1 432.3 348.3 408.1C355.5 406.3 360.9 400.2 361.8 392.8C362.7 385.4 358.9 378.1 352.3 374.7C319.1 357.3 295.9 316.5 295.9 275.3C295.9 216.1 344.7 164.1 400.4 164.1C456.1 164.1 504.9 216.1 504.9 275.3C504.9 316.4 481.7 357.3 448.5 374.7C448.3 374.8 448.2 374.9 448 375C447.4 375.3 446.8 375.7 446.3 376.1C445.9 376.4 445.5 376.7 445.1 377C444.6 377.4 444.2 377.9 443.7 378.4C443.3 378.8 443 379.2 442.6 379.6C442.2 380.1 441.9 380.6 441.6 381.1C441.3 381.6 441 382 440.8 382.5C440.5 383 440.3 383.6 440.1 384.1C439.9 384.7 439.7 385.2 439.5 385.8C439.4 386 439.3 386.2 439.3 386.4C439.2 386.8 439.2 387.1 439.2 387.5C439.1 388.1 439 388.7 438.9 389.3C438.9 389.9 438.9 390.5 438.9 391C438.9 391.6 438.9 392.2 439 392.7C439.1 393.3 439.2 393.9 439.3 394.5C439.4 395 439.5 395.6 439.7 396.1C439.9 396.7 440.2 397.3 440.4 397.9C440.5 398.2 440.6 398.5 440.8 398.8C440.9 399 441 399.1 441.1 399.3C441.4 399.9 441.8 400.4 442.2 400.9C442.5 401.3 442.8 401.8 443.2 402.2C443.6 402.6 444 403.1 444.4 403.5C444.8 403.9 445.2 404.3 445.7 404.7C446.1 405 446.6 405.3 447.1 405.7C447.6 406 448.1 406.4 448.6 406.6C449.1 406.8 449.6 407 450.1 407.2C450.7 407.4 451.3 407.7 451.9 407.9C452.1 408 452.2 408 452.4 408.1C534.4 428.1 607.1 500.8 625.7 581.2C627.7 603.3 642.9 641.6 688.7 641.6C723.2 641.6 741.2 618.9 747.8 597.2H800.6V661.2C800.6 670.8 808 678.6 817.3 679.2C819.7 679.7 844.1 685.4 844.1 708.9C844.1 730.4 818.1 735.7 815.3 736.2C806.7 737.6 800.3 745.2 800.3 754V815.7H732C722.8 815.7 715.1 822.8 714.2 832C713.7 836.7 710.3 860.2 688.3 860.2C665.9 860.2 661.6 836.2 661 831.5C660 822.4 652.3 815.6 643.2 815.6H577.1V769.2C598.7 762.6 621.2 744.2 621.2 708.6C621.2 673 599 654.7 577.5 648.2V579.6C577.5 569.7 569.5 561.6 559.6 561.6H476C467.3 561.6 459.8 568 458.4 576.7C457.9 579.8 452.6 606.6 430 606.6C407.8 606.6 403.2 579.8 402.7 576.9C401.5 568 393.9 561.3 385 561.3H299.3C289.4 561.3 281.4 569.4 281.4 579.3V648.3C261.3 656.3 237.4 674.7 237.4 709C237.4 743.4 261.4 761.6 281.7 769.3V833.5C281.7 843.4 289.7 851.5 299.6 851.5H384.8C394.3 851.5 402.1 844.1 402.7 834.5C402.9 831.7 405 807.3 429.4 807.3C452.6 807.3 456.4 828.5 456.9 834.8C457.6 844.2 465.4 851.4 474.7 851.4H505.4C515.3 851.4 523.3 843.3 523.3 833.4C523.3 823.5 515.3 815.4 505.4 815.4H489.1C482.4 794.9 465.1 771.3 429.3 771.3C395.3 771.3 377.1 793.9 370.1 815.5H317.4V755.7C317.4 746.9 310.9 739.4 302.3 737.9C299.3 737.4 273.1 732.3 273.1 709C273.1 685.5 299.3 680 302.2 679.5C310.8 678.1 317.1 670.5 317.1 661.7V597H371.1C378.5 617.7 396.1 642.3 429.9 642.3C463.7 642.3 481.7 617.8 489.5 597.3H541.6V663C541.6 672.9 549.5 680.9 559.3 681C563.6 681.1 585.4 682.6 585.4 708.2C585.4 732.1 566.7 735.4 558.9 735.7C549.2 735.9 541.4 743.9 541.4 753.7V833.3C541.4 843.2 549.4 851.3 559.3 851.3H629.3C636.5 871.9 653.9 896 688.4 896C722.9 896 739.8 872 746.5 851.4H818.4C828.3 851.4 836.3 843.3 836.3 833.4V767.3C856.3 759.5 880.1 741.7 880.1 708.7C880 673.6 855.3 655.2 836.4 647.5Z" fill="#333333"/>
</svg>
