<svg width="1024" height="1024" viewBox="0 0 1024 1024" fill="none" xmlns="http://www.w3.org/2000/svg">
<path d="M748 799C760 799 770 790 770 778V707C770 603 705 514 611 479C637 452 653 414 652 375C654 295 591 228 510 225C429 228 366 295 369 374C368 415 384 453 411 480C318 516 254 605 254 707V778C254 790 264 799 276 799C287 799 297 790 297 778V707C297 610 366 528 462 510C471 509 477 502 479 493C480 484 476 475 468 471C432 452 411 415 411 374C410 317 454 270 510 268C566 270 611 317 609 375C610 415 588 451 553 470C545 475 541 483 543 492C544 501 551 508 560 510C657 526 727 609 727 707V778C727 790 737 799 748 799ZM875 747C886 747 896 737 896 725V670C896 589 846 517 774 486C793 464 805 435 804 404C806 344 764 293 706 281C694 278 683 286 681 297C679 309 686 320 698 323C736 330 763 364 762 403C762 434 746 462 719 477C711 481 706 490 708 499C709 508 716 515 725 516C799 530 853 595 853 670V704H832C820 704 811 714 811 725C811 737 820 747 832 747H875ZM192 747C204 747 213 737 213 725C213 714 204 704 192 704H171V670C171 595 225 530 299 516C308 515 315 508 316 499C318 490 313 481 305 477C278 462 262 434 262 403C261 364 289 330 327 323C338 320 346 309 343 298C341 286 330 279 318 281C260 292 218 344 220 403C219 434 231 464 250 486C178 517 128 589 128 670V725C128 737 138 747 149 747H192Z" fill="#333333"/>
</svg>
